<svg xmlns="http://www.w3.org/2000/svg" width="538" height="49" viewBox="0 0 538 49">
  <g fill="none" fill-rule="evenodd">
    <path fill="#D3D3D3" d="M6.9990758,0 C3.13359297,0 0,3.13971044 0,6.99446802 L0,49 L538,49 L538,6.99446802 C538,3.13153 534.874254,0 531.000924,0 L6.9990758,0 Z"/>
    <ellipse cx="23.491" cy="24.5" fill="#E96E4C" rx="6.909" ry="6.682"/>
    <path fill="#E6A935" d="M44.6797945,31.1818182 C48.495666,31.1818182 51.5890411,28.1902663 51.5890411,24.5 C51.5890411,20.8097337 48.495666,17.8181818 44.6797945,17.8181818 C40.863923,17.8181818 37.7705479,20.8097337 37.7705479,24.5 C37.7705479,28.1902663 40.863923,31.1818182 44.6797945,31.1818182 Z"/>
    <ellipse cx="65.868" cy="24.5" fill="#85C33D" rx="6.909" ry="6.682"/>
    <rect width="435.743" height="24.055" x="89.36" y="12.473" fill="#FFF" opacity=".85"/>
  </g>
</svg>
