<svg xmlns="http://www.w3.org/2000/svg" width="51" height="51" viewBox="0 0 51 51">
  <defs>
    <linearGradient id="logo-a" x1="59.801%" y1="58.338%" y2="87.932%">
      <stop offset="0%" stop-color="#FA6400"/>
      <stop offset="100%" stop-color="#F7B500"/>
    </linearGradient>
  </defs>
  <g fill="none" transform="matrix(1 0 0 -1 0 51)">
    <path fill="url(#logo-a)" d="M26.011509,50.9436233 C25.8658096,50.9227431 25.3974901,50.8496622 24.9702785,50.7870215 C23.7521273,50.6199795 21.4198959,50.0139304 19.7641261,49.4501638 C15.9010101,48.1341863 11.9239363,46.7132856 11.0700337,46.3687615 C7.14447505,44.7395803 4.93764922,42.4834698 3.03210897,38.1382907 C1.63651668,34.9629273 0.418365473,30.1583828 0.0749311295,26.5126919 C-0.070768289,24.8939509 0.00208142026,22.0839918 0.241444751,20.7680143 C0.783134374,17.6970522 1.63651668,15.7755476 3.49002143,13.4667144 C4.56247322,12.1298567 5.68696051,10.9809212 8.62332415,8.24404299 C12.569697,4.55711361 13.8502908,3.5021392 15.7766452,2.37408393 C18.4939394,0.765261003 21.7217019,0.00313203685 25.803367,0.00313203685 C28.6356596,0.00313203685 31.1344047,0.378976459 33.5186716,1.18338792 C35.6323538,1.88339816 37.1419039,2.7713306 39.1202938,4.48403275 C40.4008877,5.58076766 41.5878176,6.85498465 44.2848179,9.99902764 C45.3156413,11.1897236 46.5650138,12.6518628 47.0754821,13.2370317 C49.2932354,15.806346 50.2720233,17.6552917 50.7923783,20.1828454 C51.0421488,21.4361822 51.062963,23.3060082 50.8444138,24.8412282 C50.6154576,26.4495292 49.355678,32.3200102 48.9492807,33.6673081 C47.6166514,38.1064483 45.8776247,40.7697236 41.9421794,44.4154145 C36.7984695,49.1677584 32.8109887,51.0375844 27.9066422,50.995824 C27.0001837,50.9853838 26.1572084,50.9645036 26.011509,50.9436233 Z M30.6447505,48.6561924 C33.872513,47.9875026 36.7776553,46.2643603 40.5153658,42.8175537 C43.1702173,40.3630809 44.4305173,38.7751382 45.5758188,36.4355067 C46.6586777,34.2420368 47.0645546,32.8738588 48.1265993,27.7660287 C48.8660239,24.2357011 49.0117233,22.9092835 48.8238751,21.3631013 C48.501255,18.7520266 47.5016529,16.913521 44.6173248,13.6441965 C43.9195286,12.8502252 42.6389348,11.3776459 41.7850321,10.3748721 C37.3183043,5.12088025 34.902816,3.48125896 30.3320171,2.55156602 C27.031405,1.88287615 22.8456688,2.02955988 19.7948271,2.91697032 C18.5662687,3.27193449 17.2752678,3.89886387 15.9634527,4.78679632 C14.2972758,5.91485159 13.120753,6.92806551 8.32099786,11.4507267 C5.36382002,14.2288434 3.67734925,16.4854759 2.9483318,18.615783 C1.66825834,22.3971955 1.88680747,27.4737052 3.58368534,33.3019038 C4.98916437,38.1482088 6.83226201,41.313132 9.17490052,42.9428352 C10.7786348,44.0500102 11.3718396,44.2901331 20.1283747,47.3088946 C22.4715335,48.1237462 24.4494031,48.6144319 26.1780227,48.8127943 C27.3337313,48.9385977 29.6555556,48.8655169 30.6447505,48.6561924 Z"/>
    <path fill="#0074CC" d="M26.6879706,46.5149232 C24.8870217,46.3792016 23.2000306,45.9929171 20.7845424,45.1676254 C13.9959902,42.8279939 12.777839,42.3472262 11.4238751,41.480696 C8.90431589,39.8509928 7.09243955,36.9058342 5.75981022,32.2573695 C4.81224365,28.9358444 4.51043771,27.0038997 4.51043771,24.1626203 C4.51043771,22.3763153 4.55206612,21.8334289 4.74980104,20.8619754 C5.52044689,17.0288843 6.7385981,15.3469806 12.8397612,9.72758444 C16.9739822,5.92581372 18.8373737,4.86039918 22.523569,4.20214944 C24.3146312,3.87850563 27.5418733,3.85762538 29.2808999,4.14994882 C33.9141414,4.9125998 36.4446281,6.4687001 40.1823385,10.8138792 C40.8385063,11.5660901 41.8589226,12.746346 42.4625344,13.4353941 C45.3260484,16.7047185 46.0961739,17.8954145 46.7523416,20.0888843 C47.0229262,20.9663767 47.1269972,23.46261 46.9396694,24.7055067 C46.8147842,25.5934391 46.0753597,29.1968475 45.6694827,30.8991095 C45.3468626,32.298608 44.81558,33.7821494 44.1807469,35.0772467 C43.1915519,37.1245548 42.212764,38.4092119 40.1511172,40.4043193 C35.2571778,45.136305 31.4674319,46.8495292 26.6879706,46.5149232 Z M30.1655035,44.196172 L30.727487,44.0917707 L30.2903887,43.6637257 L29.8631772,43.2252405 L29.2595654,43.8417298 L28.6663606,44.4472569 L29.1346801,44.374176 C29.395378,44.3423337 29.8532905,44.2588127 30.1655035,44.196172 Z M27.104775,42.9637155 L28.3541475,41.7103787 L27.104775,40.457042 C26.417386,39.7674719 25.8137741,39.2037052 25.7513315,39.2037052 C25.6888889,39.2037052 25.0847567,39.7674719 24.397888,40.457042 L23.1485155,41.7103787 L24.397888,42.9637155 C25.085277,43.6532856 25.6888889,44.2170522 25.7513315,44.2170522 C25.8137741,44.2170522 26.417386,43.6532856 27.104775,42.9637155 Z M34.9970003,41.992262 C35.4965412,41.6581781 35.9237527,41.3340123 35.954974,41.3026919 C35.9757882,41.2609314 35.5282828,40.7592835 34.9553719,40.1850768 L33.9245485,39.1509826 L32.6543618,40.4356397 L31.373768,41.7098567 L32.1548209,42.4933879 L32.9254668,43.2769191 L33.5082645,42.9428352 C33.8204775,42.7653531 34.486532,42.3373081 34.9970003,41.992262 Z M18.8477808,40.4361617 L17.5775941,39.1515046 L16.6196204,40.1125179 C16.0888583,40.6449642 15.682461,41.0944115 15.7032752,41.1257318 C15.7344965,41.1466121 16.577992,41.4493756 17.5775941,41.7944217 L19.3998776,42.4213511 L19.7641261,42.0663869 L20.1283747,41.7114227 L18.8477808,40.4361617 Z M14.8186716,38.8899795 L16.0680441,37.6366428 L14.7874503,36.3624258 L13.5172635,35.0777687 L12.1117845,36.4877073 C11.3411387,37.2607984 10.7063055,37.9289662 10.7063055,37.9811668 C10.7063055,38.2943705 13.0593511,40.1433163 13.465228,40.1433163 C13.5271503,40.1438383 14.1312825,39.5795496 14.8186716,38.8899795 Z M22.9710744,38.8591812 L24.2412611,37.5849642 L22.9606673,36.3003071 L21.6904806,35.0260901 L20.3890725,36.3316274 L19.0871442,37.6366428 L20.3365167,38.8899795 C21.0239057,39.5795496 21.6067034,40.1433163 21.6379247,40.1433163 C21.669146,40.1433163 22.2628711,39.5691095 22.9710744,38.8591812 Z M31.1651056,38.8899795 L32.4144781,37.6366428 L31.1130701,36.3311054 L29.8116621,35.0255681 L28.5414754,36.2997851 L27.2608815,37.5844422 L28.5310683,38.8586592 C29.2392715,39.5691095 29.8324763,40.1433163 29.8636976,40.1433163 C29.8949189,40.1433163 30.4782369,39.5795496 31.1651056,38.8899795 Z M38.9740741,38.5767758 L40.2234466,37.3234391 L39.0994796,36.205824 L37.9853994,35.0777687 L36.7152127,36.3519857 L35.4340986,37.6366428 L36.5273646,38.7333777 C37.1314968,39.3389048 37.6414448,39.8301126 37.6726661,39.8301126 C37.7038874,39.8301126 38.2872054,39.266346 38.9740741,38.5767758 Z M10.7057851,32.2573695 L9.4043771,30.9518321 L8.69617386,31.6622825 L7.98797062,32.3727329 L8.32099786,33.3128659 C8.49791858,33.8244319 8.83094582,34.6601638 9.07082951,35.1618117 L9.49752066,36.0810645 L10.7468932,34.8277277 L12.0066728,33.5639509 L10.7057851,32.2573695 Z M18.9102234,34.7854452 L20.1804102,33.5112282 L18.8998163,32.2265711 L17.6296296,30.9518321 L16.3282216,32.2573695 L15.0268136,33.5629069 L16.2761861,34.8162436 C16.9635751,35.5058137 17.5463728,36.0695803 17.5775941,36.0695803 C17.6088154,36.0701024 18.2025406,35.4953736 18.9102234,34.7854452 Z M27.0319253,32.2364893 L25.7513315,30.9518321 L24.4811448,32.2260491 L23.200551,33.5107062 L24.4707377,34.7849232 L25.7513315,36.0695803 L27.0215182,34.7953634 L28.302112,33.5107062 L27.0319253,32.2364893 Z M35.2259565,34.8167656 L36.475329,33.5634289 L35.173921,32.2578915 L33.872513,30.9523541 L32.6023263,32.2265711 L31.3217325,33.5112282 L32.5919192,34.7854452 C33.3001224,35.4958956 33.8933272,36.0701024 33.9245485,36.0701024 C33.9557698,36.0701024 34.5385675,35.5058137 35.2259565,34.8167656 Z M42.1810223,34.3777584 C42.4411999,33.8453122 42.7747475,33.0931013 42.9204469,32.7172569 L43.1702173,32.0276868 L42.6285277,31.4848004 L42.0977655,30.9518321 L40.7963575,32.2573695 L39.4949495,33.5634289 L40.4841445,34.5557625 C41.1611264,35.2348925 41.4941537,35.5063357 41.5774105,35.443695 C41.6502602,35.3805322 41.9208448,34.9002866 42.1810223,34.3777584 Z M14.797337,30.7639099 C15.4639118,30.0952201 16.0154882,29.4896929 16.0154882,29.4374923 C16.0154882,29.3748516 15.4529844,28.7688025 14.7661157,28.0797544 L13.5167432,26.8264176 L12.2153352,28.131955 L10.9139272,29.4374923 L12.1841139,30.7117093 C12.8923171,31.4221597 13.4855219,31.9963664 13.5167432,31.9963664 C13.5479645,31.9963664 14.1208754,31.4430399 14.797337,30.7639099 Z M22.9710744,28.1632753 L21.6904806,26.8786182 L20.4202938,28.1528352 L19.1397,29.4374923 L20.4098867,30.7117093 L21.6904806,31.9963664 L22.9606673,30.7221494 L24.2412611,29.4374923 L22.9710744,28.1632753 Z M31.0922559,28.1632753 L29.8116621,26.8786182 L28.5414754,28.1528352 L27.2608815,29.4374923 L28.5310683,30.7117093 L29.8116621,31.9963664 L31.0818488,30.7221494 L32.3624426,29.4374923 L31.0922559,28.1632753 Z M39.3180288,30.7117093 L40.5882155,29.4374923 L39.2868075,28.131955 L37.9853994,26.8264176 L36.7360269,28.0797544 C36.0486379,28.7693245 35.4866544,29.3748516 35.4866544,29.4374923 C35.4866544,29.5418936 37.8813284,31.9963664 37.9853994,31.9963664 C38.0161004,31.9963664 38.6098255,31.4221597 39.3180288,30.7117093 Z M7.50924395,29.0506858 C7.30110193,28.8314432 7.1137741,28.6748414 7.103367,28.6852815 C7.0721457,28.7166018 7.23865932,29.5523337 7.33232323,29.7924565 C7.36354454,29.9072979 7.43639425,29.8864176 7.63412917,29.6984954 L7.8943067,29.4479324 L7.50924395,29.0506858 Z M43.8471993,29.3748516 C43.8888277,29.2078096 43.8784206,29.1869294 43.7535354,29.2913306 C43.6806856,29.3539713 43.6390572,29.4479324 43.6702785,29.5001331 C43.7535354,29.6358547 43.7847567,29.6149744 43.8471993,29.3748516 Z M10.7265993,24.0373388 L9.45641261,22.7526817 L8.15500459,24.058219 L6.85307622,25.3637564 L8.12326293,26.6379734 L9.40385675,27.9226305 L10.7057851,26.6170931 L12.0071931,25.3115558 L10.7265993,24.0373388 Z M18.8790021,24.058219 L17.5775941,22.7526817 L16.3074074,24.0373388 L15.0268136,25.3115558 L16.3282216,26.6170931 L17.6296296,27.9231525 L18.8998163,26.6484135 L20.1804102,25.3637564 L18.8790021,24.058219 Z M27.0319253,24.0895394 L25.7513315,22.8048823 L24.4811448,24.0790993 L23.2000306,25.3637564 L24.4702173,26.6379734 L25.7508111,27.9226305 L27.0215182,26.6484135 L28.302112,25.3637564 L27.0319253,24.0895394 Z M35.1947352,24.0373388 L33.9245485,22.7526817 L32.6231405,24.058219 L31.3212121,25.3637564 L32.5919192,26.6379734 L33.872513,27.9226305 L35.173921,26.6170931 L36.475329,25.3115558 L35.1947352,24.0373388 Z M44.5658096,25.5725589 C44.5970309,25.6038792 44.6490664,25.5203582 44.6698806,25.3741965 C44.7011019,25.2175947 44.6802877,25.1340737 44.6178451,25.1758342 C44.5658096,25.2071546 43.9616774,24.6741863 43.2852158,23.9955783 L42.0462504,22.7526817 L40.7760637,24.0373388 L39.4949495,25.3115558 L40.7963575,26.6170931 L42.0977655,27.9226305 L43.2951025,26.7214944 C43.9616774,26.0533265 44.5345883,25.5412385 44.5658096,25.5725589 Z M22.9398531,19.9844831 L21.6384451,18.6789458 L20.3682583,19.9636029 L19.0876645,21.2378199 L20.3890725,22.5433572 L21.6904806,23.8488946 L22.9606673,22.5746776 L24.2412611,21.2900205 L22.9398531,19.9844831 Z M31.1338843,19.9636029 L29.8636976,18.6789458 L28.5622896,19.9844831 L27.2608815,21.2900205 L28.5310683,22.5647595 L29.8116621,23.8494166 L31.1130701,22.5438792 L32.4144781,21.2383419 L31.1338843,19.9636029 Z M14.8186716,22.4916786 L16.0680441,21.2383419 L14.7874503,19.9536847 L13.5172635,18.6794678 L12.2470768,19.9536847 L10.966483,21.2383419 L12.2158555,22.4916786 C12.9032446,23.1812487 13.4860422,23.7450154 13.5172635,23.7450154 C13.5479645,23.7450154 14.1312825,23.1807267 14.8186716,22.4916786 Z M39.2868075,22.4916786 L40.53618,21.2383419 L39.2555862,19.9531627 L37.9853994,18.6789458 L36.7152127,19.9531627 L35.4346189,21.2378199 L36.6839914,22.4911566 C37.3713805,23.1807267 37.9541781,23.7444933 37.9853994,23.7444933 C38.0166208,23.7444933 38.5994184,23.1807267 39.2868075,22.4916786 Z M44.8051729,21.2064995 C44.711509,20.736694 44.607438,20.3290072 44.5866238,20.3081269 C44.5554025,20.2768066 44.3160392,20.4751689 44.0449342,20.7466121 L43.5558004,21.2372979 L44.2327824,21.9164278 C44.878543,22.5746776 44.9097643,22.5955578 44.9409856,22.3340328 C44.9612795,22.1779529 44.8988369,21.676827 44.8051729,21.2064995 Z M7.37395164,21.8125486 L7.93645546,21.2378199 L7.53057851,20.8202149 C7.31202938,20.6009724 7.10388736,20.4339304 7.06225895,20.4548106 C7.02063055,20.4756909 6.92696664,20.8619754 6.86452403,21.3114227 C6.79167432,21.760348 6.70841751,22.188915 6.68760331,22.2619959 C6.61371289,22.5125589 6.81144781,22.3763153 7.37395164,21.8125486 Z M10.7578206,18.4179427 L12.0071931,17.1646059 L11.0700337,16.2140328 L10.1328742,15.2738997 L9.58129783,15.8799488 C9.27949189,16.2140328 8.77943067,16.8618424 8.46721763,17.3212078 L7.8943067,18.1464995 L8.64413835,18.9091505 C9.06042241,19.3267554 9.42519131,19.6718014 9.45641261,19.6718014 C9.48763391,19.6712794 10.0704316,19.1075128 10.7578206,18.4179427 Z M18.8790021,18.4179427 L20.1283747,17.1646059 L18.8477808,15.8799488 L17.5775941,14.6052098 L16.3074074,15.8794268 L15.0268136,17.1640839 L16.2761861,18.4174207 C16.9635751,19.1069908 17.5463728,19.6707574 17.5775941,19.6707574 C17.6088154,19.6712794 18.1921335,19.1075128 18.8790021,18.4179427 Z M27.104775,18.4179427 L28.3541475,17.1646059 L27.0527395,15.8590686 L25.7513315,14.5535312 L24.4499235,15.8590686 L23.1485155,17.1646059 L24.397888,18.4179427 C25.085277,19.1075128 25.6888889,19.6712794 25.7513315,19.6712794 C25.8137741,19.6712794 26.417386,19.1075128 27.104775,18.4179427 Z M35.2259565,18.4179427 L36.475329,17.1646059 L35.1947352,15.8799488 L33.9245485,14.6057318 L32.6543618,15.8799488 L31.373768,17.1646059 L32.6231405,18.4179427 C33.3105295,19.1075128 33.8933272,19.6712794 33.9245485,19.6712794 C33.9557698,19.6712794 34.5385675,19.1075128 35.2259565,18.4179427 Z M42.826783,18.9399488 C43.514172,18.2503787 43.5349862,18.2086182 43.3991736,17.9580553 C43.2534741,17.676172 42.3163147,16.4959161 41.6809611,15.7854657 L41.2958984,15.3574207 L40.3899602,16.2662334 L39.4949495,17.1646059 L40.744322,18.4179427 C41.431711,19.1075128 42.0145087,19.6712794 42.04573,19.6712794 C42.0769513,19.6712794 42.4313131,19.3476356 42.826783,18.9399488 Z M14.8186716,14.3442068 L16.0680441,13.09087 L15.1829201,12.2029376 L14.2977961,11.3150051 L12.9651668,12.5370215 L11.6325375,13.7590379 L12.5488828,14.6782907 C13.0484236,15.1794166 13.4860422,15.5975435 13.5172635,15.5975435 C13.5479645,15.5975435 14.1312825,15.0337769 14.8186716,14.3442068 Z M22.9710744,14.3128864 L24.2412611,13.0386694 L22.9606673,11.7540123 L21.6904806,10.4797953 L20.3890725,11.7853327 L19.0876645,13.09087 L20.337037,14.3442068 C21.0244261,15.0337769 21.6072238,15.5975435 21.6384451,15.5975435 C21.6696664,15.5975435 22.2628711,15.0233367 22.9710744,14.3128864 Z M31.1651056,14.3442068 L32.4144781,13.09087 L31.1130701,11.7853327 L29.8116621,10.4797953 L28.5414754,11.7540123 L27.2608815,13.0386694 L28.5310683,14.3128864 C29.2392715,15.0233367 29.8324763,15.5975435 29.8636976,15.5975435 C29.8949189,15.5975435 30.4782369,15.0337769 31.1651056,14.3442068 Z M38.963667,14.6678506 L39.8904193,13.7277175 L38.963667,12.662303 C38.4531987,12.0771341 37.9224365,11.4611668 37.7767371,11.2941249 L37.5165595,10.9913613 L36.475329,12.0463357 L35.4340986,13.09087 L36.6834711,14.3442068 C37.3708601,15.0337769 37.9536578,15.5975435 37.9848791,15.5975435 C38.0161004,15.5975435 38.453719,15.1799386 38.963667,14.6678506 Z M18.9102234,10.2396725 L20.1804102,8.96545548 L19.5242424,8.30720573 L18.8680747,7.64895599 L18.0870217,8.16052201 C17.4516682,8.57812692 16.3896235,9.38253838 15.9629324,9.76934493 C15.9004897,9.82154555 16.1918886,10.1765097 16.6919498,10.6885977 C17.1498623,11.1479632 17.5458525,11.5243296 17.5770738,11.5243296 C17.6088154,11.5243296 18.2025406,10.9496008 18.9102234,10.2396725 Z M27.0319253,7.69071648 L25.7513315,6.40605937 L24.4811448,7.68027636 L23.200551,8.96493347 L24.4707377,10.2391505 L25.7513315,11.5238076 L27.0215182,10.2495906 L28.302112,8.96493347 L27.0319253,7.69071648 Z M34.9345577,10.5633163 C35.4653199,10.03087 35.9029385,9.55010235 35.9029385,9.48746162 C35.8925314,9.33085977 34.5599021,8.30720573 33.6851852,7.78467758 L32.9353535,7.34619243 L32.1334864,8.15060389 L31.3212121,8.96545548 L32.5913988,10.2396725 C33.2996021,10.9501228 33.8928069,11.5243296 33.9240282,11.5243296 C33.9453627,11.5243296 34.4032752,11.0853224 34.9345577,10.5633163 Z M22.6796755,6.39561924 C22.6796755,6.32253838 22.2009489,6.41649949 21.3886746,6.62530194 L20.9827977,6.72970317 L21.3366391,7.09510747 L21.6800735,7.45007165 L22.1796143,6.95938588 C22.450199,6.68794268 22.6796755,6.43737973 22.6796755,6.39561924 Z M30.5094582,6.6044217 C30.4053872,6.51046059 28.7183961,6.20769703 28.7183961,6.28077789 C28.7183961,6.32253838 28.9577594,6.59398158 29.2600857,6.89726714 L29.8017753,7.45059365 L30.1972452,7.06430911 C30.4157943,6.85498465 30.5614937,6.64618219 30.5094582,6.6044217 Z" opacity=".623"/>
  </g>
</svg>
